<?xml version="1.0" standalone="no"?><!DOCTYPE svg PUBLIC "-//W3C//DTD SVG 1.1//EN" "http://www.w3.org/Graphics/SVG/1.1/DTD/svg11.dtd"><svg t="1629780356431" class="icon" viewBox="0 0 1024 1024" version="1.1" xmlns="http://www.w3.org/2000/svg" p-id="3283" xmlns:xlink="http://www.w3.org/1999/xlink" width="200" height="200"><defs><style type="text/css"></style></defs><path d="M503.808 55.296c-256 0-460.8 204.8-460.8 456.704s204.8 456.704 456.704 456.704 460.8-204.8 460.8-456.704S755.712 55.296 503.808 55.296zM503.808 929.792c-102.4 0-196.608-38.912-273.408-102.4 55.296-51.2 80.896-64.512 145.408-90.112 72.704-29.696 98.304-90.112 68.608-153.6-4.096-13.312-13.312-21.504-17.408-33.792-21.504-38.912-47.104-84.992-47.104-187.392 0-123.904 59.392-123.904 102.4-123.904 33.792 0 47.104-4.096 59.392-13.312 8.192-4.096 13.312-4.096 21.504-4.096 38.912 0 80.896 38.912 80.896 145.408s-17.408 132.096-43.008 179.2c-8.192 13.312-13.312 25.6-21.504 37.888C567.296 614.4 563.2 640 571.392 665.6c13.312 29.696 38.912 55.296 89.088 80.896 43.008 21.504 84.992 59.392 106.496 80.896C704.512 887.808 606.208 929.792 503.808 929.792zM805.888 797.696c-25.6-25.6-72.704-68.608-119.808-90.112-38.912-17.408-64.512-38.912-68.608-55.296-4.096-13.312-4.096-29.696 8.192-47.104 8.192-13.312 13.312-25.6 21.504-38.912 25.6-47.104 47.104-80.896 47.104-200.704 0-179.2-102.4-187.392-123.904-187.392-17.408 0-25.6 4.096-37.888 8.192-13.312 4.096-21.504 8.192-47.104 8.192-47.104 0-145.408 4.096-145.408 165.888 0 115.712 29.696 166.912 51.2 208.896 4.096 13.312 13.312 21.504 17.408 29.696 21.504 47.104 4.096 76.8-47.104 98.304-63.488 29.696-94.208 43.008-157.696 98.304C128 724.992 84.992 622.592 84.992 512c0-230.4 187.392-417.792 417.792-417.792S921.6 281.6 921.6 512C917.504 622.592 874.496 720.896 805.888 797.696z" p-id="3284"></path></svg>