<?xml version="1.0" standalone="no"?><!DOCTYPE svg PUBLIC "-//W3C//DTD SVG 1.1//EN" "http://www.w3.org/Graphics/SVG/1.1/DTD/svg11.dtd"><svg t="1629352491026" class="icon" viewBox="0 0 1024 1024" version="1.1" xmlns="http://www.w3.org/2000/svg" p-id="2087" xmlns:xlink="http://www.w3.org/1999/xlink" width="200" height="200"><defs><style type="text/css"></style></defs><path d="M832 960H192a85.333333 85.333333 0 0 1-85.333333-85.333333V149.333333a85.333333 85.333333 0 0 1 85.333333-85.333333h640a85.333333 85.333333 0 0 1 85.333333 85.333333v725.333334a85.333333 85.333333 0 0 1-85.333333 85.333333z m21.333333-789.333333a42.666667 42.666667 0 0 0-42.666666-42.666667H213.333333a42.666667 42.666667 0 0 0-42.666666 42.666667v682.666666a42.666667 42.666667 0 0 0 42.666666 42.666667h597.333334a42.666667 42.666667 0 0 0 42.666666-42.666667V170.666667z m-96 640h-448a32 32 0 0 1 0-64h448a32 32 0 0 1 0 64z m0-149.333334h-277.333333a32 32 0 0 1 0-64h277.333333a32 32 0 0 1 0 64z m0-149.333333h-149.333333a32 32 0 0 1 0-64h149.333333a32 32 0 0 1 0 64z" fill="#5C8EF3" p-id="2088"></path><path d="M546.133333 353.301333l-75.413333 75.413334a92.48 92.48 0 0 1-125.632-1.6l-75.434667-75.434667a85.333333 85.333333 0 0 1 120.682667-120.682667l18.368 18.368 16.746667-16.746666a85.333333 85.333333 0 0 1 120.682666 120.682666z m-37.717333-82.965333a32 32 0 0 0-45.248 0l-54.464 54.464-56.085333-56.085333a32 32 0 0 0-45.248 45.269333l75.413333 75.413333a31.232 31.232 0 0 0 14.165333 7.722667 31.744 31.744 0 0 0 36.053334-6.122667l75.413333-75.413333a32 32 0 0 0-0.085333-45.248z" fill="#EB9E52" p-id="2089"></path></svg>