<?xml version="1.0" standalone="no"?><!DOCTYPE svg PUBLIC "-//W3C//DTD SVG 1.1//EN" "http://www.w3.org/Graphics/SVG/1.1/DTD/svg11.dtd"><svg t="1629352554226" class="icon" viewBox="0 0 1024 1024" version="1.1" xmlns="http://www.w3.org/2000/svg" p-id="2351" xmlns:xlink="http://www.w3.org/1999/xlink" width="200" height="200"><defs><style type="text/css"></style></defs><path d="M521.955556 492.088889c-83.911111 0-153.6-68.266667-153.6-153.6S436.622222 184.888889 521.955556 184.888889c83.911111 0 153.6 68.266667 153.6 153.6s-69.688889 153.6-153.6 153.6z m0-248.888889c-52.622222 0-96.711111 42.666667-96.711112 96.711111s42.666667 96.711111 96.711112 96.711111 96.711111-42.666667 96.711111-96.711111-44.088889-96.711111-96.711111-96.711111z" fill="#DC4569" p-id="2352"></path><path d="M839.111111 897.422222H204.8c-15.644444 0-28.444444-12.8-28.444444-28.444444 0-190.577778 155.022222-345.6 345.6-345.6S867.555556 678.4 867.555556 868.977778c0 15.644444-12.8 28.444444-28.444445 28.444444z m-604.444444-56.888889h574.577777c-14.222222-146.488889-137.955556-260.266667-287.288888-260.266666s-273.066667 113.777778-287.288889 260.266666z" fill="#3FA6AD" p-id="2353"></path><path d="M681.244444 775.111111h-100.977777c-15.644444 0-28.444444-12.8-28.444445-28.444444s12.8-28.444444 28.444445-28.444445h100.977777c15.644444 0 28.444444 12.8 28.444445 28.444445s-12.8 28.444444-28.444445 28.444444z" fill="#DC4569" p-id="2354"></path></svg>