<?xml version="1.0" standalone="no"?><!DOCTYPE svg PUBLIC "-//W3C//DTD SVG 1.1//EN" "http://www.w3.org/Graphics/SVG/1.1/DTD/svg11.dtd"><svg t="1629429172924" class="icon" viewBox="0 0 1024 1024" version="1.1" xmlns="http://www.w3.org/2000/svg" p-id="8625" xmlns:xlink="http://www.w3.org/1999/xlink" width="200" height="200"><defs><style type="text/css"></style></defs><path d="M864.4 1003.8H157.5c-4.3 0-7.9-3.5-7.9-7.9V23.2c0-1.7 1.3-3 3-3h718.7c1.7 0 3 1.3 3 3v970.6c0.1 5.5-4.4 10-9.9 10z" fill="#FFFFFF" p-id="8626"></path><path d="M739.6 1024H255.7c-69.6 0-126.3-56.7-126.3-126.3V60.6C129.4 27.2 156.6 0 190 0h644c33.4 0 60.6 27.2 60.6 60.6V869c0 85.5-69.5 155-155 155zM190.1 40.4c-11.1 0-20.2 9.1-20.2 20.2v837.1c0 47.3 38.5 85.9 85.9 85.9h483.9c63.1 0 114.5-51.4 114.5-114.5V60.6c0-11.1-9.1-20.2-20.2-20.2H190.1z" fill="#403F3F" p-id="8627"></path><path d="M20.2 891.4c0 61.8 50.6 112.4 112.4 112.4H762c-62.1 0-112.4-50.3-112.4-112.4S699.9 779 762 779H132.6c-61.8 0-112.4 50.6-112.4 112.4z" fill="#33ABE3" p-id="8628"></path><path d="M762 1024H132.6C59.5 1024 0 964.5 0 891.4s59.5-132.6 132.6-132.6H762c11.2 0 20.2 9 20.2 20.2s-9.1 20.2-20.2 20.2c-50.8 0-92.2 41.3-92.2 92.2 0 50.8 41.4 92.2 92.2 92.2 11.2 0 20.2 9 20.2 20.2s-9.1 20.2-20.2 20.2zM132.6 799.2c-50.8 0-92.2 41.3-92.2 92.2 0 50.8 41.4 92.2 92.2 92.2h534.1c-23.1-23.9-37.4-56.4-37.4-92.2s14.3-68.3 37.4-92.2H132.6z" fill="#403F3F" p-id="8629"></path><path d="M762 1003.8c62.1 0 112.4-50.3 112.4-112.4 0 61.8-50.6 112.4-112.4 112.4z" fill="#FFFFFF" p-id="8630"></path><path d="M762 1024c-11.2 0-20.2-9-20.2-20.2s9.1-20.2 20.2-20.2c50.8 0 92.2-41.3 92.2-92.2 0-11.2 9.1-20.2 20.2-20.2s20.2 9 20.2 20.2c0 73.1-59.5 132.6-132.6 132.6z" fill="#403F3F" p-id="8631"></path><path d="M762 1024c-73.1 0-132.6-59.5-132.6-132.6S688.9 758.8 762 758.8v40.4c-50.8 0-92.2 41.3-92.2 92.2 0 50.8 41.4 92.2 92.2 92.2 50.8 0 92.2-41.3 92.2-92.2h40.4c0 73.1-59.5 132.6-132.6 132.6z" fill="#403F3F" p-id="8632"></path><path d="M260.4 143.2h104.7" fill="#FFFFFF" p-id="8633"></path><path d="M365.1 163.4H260.4c-11.2 0-20.2-9-20.2-20.2s9.1-20.2 20.2-20.2h104.7c11.2 0 20.2 9 20.2 20.2s-9.1 20.2-20.2 20.2zM473.7 298.1H260.4c-11.2 0-20.2-9-20.2-20.2s9.1-20.2 20.2-20.2h213.3c11.2 0 20.2 9 20.2 20.2s-9 20.2-20.2 20.2zM473.7 432.8H260.4c-11.2 0-20.2-9-20.2-20.2s9.1-20.2 20.2-20.2h213.3c11.2 0 20.2 9 20.2 20.2s-9 20.2-20.2 20.2zM473.7 567.6H260.4c-11.2 0-20.2-9-20.2-20.2s9.1-20.2 20.2-20.2h213.3c11.2 0 20.2 9 20.2 20.2s-9 20.2-20.2 20.2zM473.7 702.3H260.4c-11.2 0-20.2-9-20.2-20.2s9.1-20.2 20.2-20.2h213.3c11.2 0 20.2 9 20.2 20.2s-9 20.2-20.2 20.2z" fill="#403F3F" p-id="8634"></path><path d="M788.1 469.7H561.6c-11.2 0-20.2-9-20.2-20.2V143.2c0-11.2 9.1-20.2 20.2-20.2h226.5c11.2 0 20.2 9 20.2 20.2v306.3c0 11.1-9 20.2-20.2 20.2z m-206.3-40.5h186.1V163.4H581.8v265.8z" fill="#403F3F" p-id="8635"></path><path d="M788.1 469.7c-6.2 0-12.3-2.8-16.3-8.2L545.4 155.2c-6.6-9-4.7-21.6 4.2-28.3 8.9-6.6 21.6-4.7 28.3 4.2l226.5 306.3c6.6 9 4.7 21.6-4.2 28.3-3.7 2.7-7.9 4-12.1 4z" fill="#403F3F" p-id="8636"></path><path d="M561.6 469.7c-4.2 0-8.4-1.3-12-4-9-6.6-10.9-19.3-4.2-28.3l226.5-306.3c6.6-9 19.3-10.9 28.3-4.2 9 6.6 10.9 19.3 4.2 28.3L577.9 461.5c-4 5.3-10.1 8.2-16.3 8.2z" fill="#403F3F" p-id="8637"></path><path d="M965 59v832.4" fill="#FFFFFF" p-id="8638"></path><path d="M965 911.6c-11.2 0-20.2-9-20.2-20.2V59c0-11.2 9.1-20.2 20.2-20.2s20.2 9 20.2 20.2v832.4c0 11.2-9.1 20.2-20.2 20.2z" fill="#403F3F" p-id="8639"></path><path d="M926.1 20.2c21.4 0 38.8 17.4 38.8 38.8" fill="#FFFFFF" p-id="8640"></path><path d="M965 79.2c-11.2 0-20.2-9-20.2-20.2 0-10.3-8.4-18.6-18.6-18.6-11.2 0-20.2-9-20.2-20.2S915 0 926.1 0c32.6 0 59 26.5 59 59 0.1 11.2-9 20.2-20.1 20.2zM903.8 1024c-11.2 0-20.2-9-20.2-20.2s9.1-20.2 20.2-20.2c16.7 0 41-35.9 41-92.2 0-11.2 9.1-20.2 20.2-20.2s20.2 9 20.2 20.2c0 74.4-35.8 132.6-81.4 132.6z" fill="#403F3F" p-id="8641"></path></svg>